<svg xmlns="http://www.w3.org/2000/svg" id="ribbon-bow" viewBox="0 0 100 100">
  <path d="M94.12,64.54c-.53-1.24-.87-2.4-.61-3.8.17-.92-.1-1.98-.4-2.9-.37-1.12-.96-2.17-1.51-3.22-.5-.96-.31-1.68.31-2.59.91-1.34,1.67-2.83,2.19-4.36.76-2.23-.17-4.41-.71-6.55-.65-2.58-.6-5.06.46-7.51.43-1,.84-2.02,1.17-3.06,1.36-4.27.12-8.24-3.5-10.84-3.77-2.71-8-4.08-12.63-3.09-8.78,1.88-16.2,5.68-19.64,14.75-.81,2.12-1.74,4.2-2.63,6.31-.09.22-.18.44-.28.65,0,0-.21.46-.29.7-.12.38-.34.64-.46,1.03.32.08.75.28,1.06.38,1.14.35,2.27,1.62,2.83,2.76,1.64,3.34,1.76,6.92.3,10.33-1.1,2.58-2.93,4.02-5.2,4.84.03.24-.05.83,0,1.08.07.49.47,1.66.59,1.93.34.83.69,1.69,1.18,2.46,3.43,5.35,7.31,10.33,12.34,14.3,5.99,4.73,12.48,6.5,19.78,3.33,3.74-1.62,6.52-4.16,7.23-8.35.5-3-.4-5.84-1.57-8.57ZM88.34,79.71c-5.34,2.48-10.55,2.33-15.61-.83-4.51-2.81-8.2-6.5-11.31-10.76-1.75-2.39-3.84-4.58-4.75-7.55-.28-.92-.3-1.37.6-1.77.56-.25,1.05-.64,1.64-1.01.9.81,1.77,1.7,2.76,2.43.36.27,1,.17,1.51.23-.14-.49-.14-1.11-.44-1.45-.79-.87-1.72-1.62-2.28-2.13.62-2.27,1.12-4.26,1.73-6.21.09-.3.66-.63,1.02-.64,1.66-.06,3.33.04,5-.03.4-.01.79-.42,1.19-.64-.37-.27-.71-.74-1.1-.77-1.93-.19-3.87-.27-5.76-.38-.37-1.67-.78-3.32-1.09-4.99-.07-.38.11-.95.39-1.22,1.06-1.02,2.24-1.91,3.29-2.95.4-.4.54-1.05.8-1.59-.62.11-1.38.02-1.84.35-1.31.93-2.5,2.03-3.75,3.09-.71-.6-1.43-1.2-2.38-2,1.65-3.56,3.15-7.34,5.11-10.86,3.07-5.52,8.6-7.7,14.24-9.45,4.42-1.37,8.65-.55,12.52,1.96,3.93,2.54,5.05,6.14,3.32,10.5-.97,2.43-2.15,4.83-1.82,7.53.25,1.97.75,3.91,1.19,5.84.55,2.41.1,4.57-1.63,6.32-1.51,1.53-1.62,3.1-.62,4.9.51.91,1.04,1.85,1.32,2.84.26.91.17,1.91.27,2.86.1.97.15,1.96.4,2.88.56,2.05,1.55,4.03,1.81,6.1.53,4.22-1.57,7.47-5.7,9.39Z" style="fill:#c65602"></path>
  <path d="M88.34,79.71c-5.34,2.48-10.55,2.33-15.61-.83-4.51-2.81-8.2-6.5-11.31-10.76-1.75-2.39-3.84-4.58-4.75-7.55-.28-.92-.3-1.37.6-1.77.56-.25,1.05-.64,1.64-1.01.9.81,1.77,1.7,2.76,2.43.14.11.33.16.54.18.5.06.9-.41.77-.89-.05-.19-.13-.37-.25-.5-.79-.87-1.72-1.62-2.28-2.13.62-2.27,1.12-4.26,1.73-6.21.09-.3.66-.63,1.02-.64,1.66-.06,3.33.04,5-.03.03,0,.07,0,.1-.01.71-.13.79-1.15.11-1.38-.04-.01-.09-.02-.13-.03-1.93-.19-3.87-.27-5.76-.38-.37-1.67-.78-3.32-1.09-4.99-.07-.38.11-.95.39-1.22,1.06-1.02,2.24-1.91,3.29-2.95.11-.11.21-.25.29-.39.3-.54-.17-1.17-.78-1.05-.21.04-.4.11-.55.22-1.31.93-2.5,2.03-3.75,3.09-.71-.6-1.43-1.2-2.38-2,1.65-3.56,3.15-7.34,5.11-10.86,3.07-5.52,8.6-7.7,14.24-9.45,4.42-1.37,8.65-.55,12.52,1.96,3.93,2.54,5.05,6.14,3.32,10.5-.97,2.43-2.15,4.83-1.82,7.53.25,1.97.75,3.91,1.19,5.84.55,2.41.1,4.57-1.63,6.32-1.51,1.53-1.62,3.1-.62,4.9.51.91,1.04,1.85,1.32,2.84.26.91.17,1.91.27,2.86.1.97.15,1.96.4,2.88.56,2.05,1.55,4.03,1.81,6.1.53,4.22-1.57,7.47-5.7,9.39Z" style="fill:#ffd72e"></path>
  <path d="M45.72,59.11c.04-.25-.02-.72.05-.96-.6-.17-1.2-.37-1.78-.6-2.73-1.1-3.66-3.72-4.42-6.29-1.03-3.5.93-8.25,4.73-10.45-.1-.24-.2-.47-.29-.71-.12-.32-.53-1.49-.64-1.74-1.12-2.67-2.18-5.22-3.29-7.75-.55-1.26-1.06-2.59-1.88-3.66-3.56-4.69-8.56-7.31-14-9.11-5.52-1.83-10.79-1.07-15.59,2.29-2.99,2.09-4.56,4.99-4.17,8.67.16,1.53.73,3.04,1.29,4.48.78,2.01,1.53,4.02,1.21,6.21-.22,1.49-.61,2.96-.97,4.44-.72,2.97-.59,5.85,1.59,8.15,1.28,1.35,1.12,2.42.39,3.92-.75,1.55-1.65,3.33-1.52,4.92.15,1.83-.27,3.32-.92,4.88-.27.66-.51,1.33-.71,2.01-1.78,6.27.08,11.08,5.67,13.7,2.36,1.1,5.03,1.76,7.62,2.09,1.91.25,4.08.04,5.86-.66,4.98-1.98,9.16-5.25,12.64-9.31,3.29-3.84,6.83-7.54,8.49-12.47.08-.23.55-1.58.62-2.05ZM40.89,65.34c-2.73,3.53-5.56,7.01-8.65,10.21-2.75,2.85-6.08,5.03-10.03,6.02-4.54,1.14-8.7.08-12.46-2.43-3.68-2.46-4.72-5.78-3.53-10.24.33-1.23.8-2.44,1.31-3.61.58-1.34.9-2.63.42-4.12-.2-.62.14-1.48.42-2.16.49-1.23,1.13-2.41,1.68-3.62.59-1.3.48-2.54-.55-3.56-2.37-2.34-2.78-5.11-1.77-8.14,1.36-4.08.99-7.95-.76-11.88-2.08-4.64-.78-8.29,3.55-10.96,4.64-2.85,9.55-3.03,14.47-1,2.71,1.11,5.4,2.45,7.78,4.14,1.69,1.19,3.12,2.96,4.18,4.76,1.63,2.76,2.86,5.76,4.22,8.68.37.79.59,1.65.95,2.72-.55.44-1.15.91-1.91,1.5-1.25-.58-2.73-1.33-4.27-1.93-.5-.19-1.17.03-1.76.07.36.47.63,1.1,1.1,1.37,1.31.74,2.71,1.33,4.19,2.03-1.28,2.14-1.83,4.35-1.69,6.75.02.31-.51.87-.87.95-1.89.44-3.81.72-5.69,1.16-.41.1-.72.64-1.07.98.42.2.86.63,1.24.58,2.2-.31,4.38-.74,6.64-1.14.59,1.16,1.27,2.41,1.83,3.7.12.27-.09.8-.32,1.07-.82.99-1.77,1.87-2.54,2.9-.35.47-.36,1.19-.53,1.8.56-.21,1.26-.28,1.66-.66,1.1-1.03,2.08-2.19,3.12-3.32.87.51,1.69.98,2.85,1.65-1.06,1.92-1.89,4.02-3.22,5.73Z" style="fill:#c65602"></path>
  <path d="M44.1,59.61c-1.06,1.92-1.89,4.02-3.22,5.73-2.73,3.53-5.56,7.01-8.65,10.21-2.75,2.85-6.08,5.03-10.03,6.02-4.54,1.14-8.7.08-12.46-2.43-3.68-2.46-4.72-5.78-3.53-10.24.33-1.23.8-2.44,1.31-3.61.58-1.34.9-2.63.42-4.12-.2-.62.14-1.48.42-2.16.49-1.23,1.13-2.41,1.68-3.62.59-1.3.48-2.54-.55-3.56-2.37-2.34-2.78-5.11-1.77-8.14,1.36-4.08.99-7.95-.76-11.88-2.08-4.64-.78-8.29,3.55-10.96,4.64-2.85,9.55-3.03,14.47-1,2.71,1.11,5.4,2.45,7.78,4.14,1.69,1.19,3.12,2.96,4.18,4.76,1.63,2.76,2.86,5.76,4.22,8.68.37.79.59,1.65.95,2.72-.55.44-1.15.91-1.91,1.5-1.25-.58-2.73-1.33-4.27-1.93-.15-.06-.32-.08-.5-.08-.61,0-.94.72-.54,1.19.11.13.24.24.38.32,1.31.74,2.71,1.33,4.19,2.03-1.28,2.14-1.83,4.35-1.69,6.75.02.31-.51.87-.87.95-1.89.44-3.81.72-5.69,1.16-.17.04-.32.16-.46.3-.35.35-.24.94.2,1.15.15.07.3.12.44.1,2.2-.31,4.38-.74,6.64-1.14.59,1.16,1.27,2.41,1.83,3.7.12.27-.09.8-.32,1.07-.82.99-1.77,1.87-2.54,2.9-.12.16-.2.34-.26.54-.17.58.42,1.1.98.86.16-.07.3-.15.41-.26,1.1-1.03,2.08-2.19,3.12-3.32.87.51,1.69.98,2.85,1.65Z" style="fill:#ffd72e"></path>
  <path d="M60.92,54c-1.96,4.57-5.93,6.4-10.71,6.4-3.26,0-4.72-1.02-6.93-1.9-3.05-1.22-4.09-4.15-4.94-7.02-1.45-4.91,2.39-12.02,8.93-12.92,3.5-.49,6.89-.15,10.15.84,1.27.39,2.54,1.81,3.16,3.08,1.83,3.72,1.96,7.72.33,11.53Z" style="fill:#ffa227;stroke:#c65602;stroke-miterlimit:10;stroke-width:1.41px"></path>
</svg>
